<?xml version="1.0" standalone="no"?>
<!DOCTYPE svg PUBLIC "-//W3C//DTD SVG 20010904//EN"
 "http://www.w3.org/TR/2001/REC-SVG-20010904/DTD/svg10.dtd">
<svg version="1.0" xmlns="http://www.w3.org/2000/svg"
 width="400.000000pt" height="400.000000pt" viewBox="0 0 400.000000 400.000000"
 preserveAspectRatio="xMidYMid meet">
<metadata>
Created by potrace 1.16, written by Peter Selinger 2001-2019
</metadata>
<g transform="translate(0.000000,400.000000) scale(0.100000,-0.100000)"
fill="#000000" stroke="none">
<path d="M0 3594 c0 -223 3 -404 8 -402 49 24 62 34 62 49 0 11 9 19 23 21 14
2 23 11 25 25 3 19 7 21 21 13 10 -5 20 -7 23 -5 11 11 110 7 117 -4 6 -9 16
-8 42 7 61 34 77 33 111 -1 22 -23 28 -26 23 -12 -10 27 -24 87 -25 102 0 9 7
10 27 2 40 -15 61 -37 82 -83 10 -23 27 -49 37 -58 18 -16 20 -15 36 12 l17
30 -43 30 c-69 47 -71 78 -3 44 l32 -17 -24 27 c-24 25 -24 27 -6 40 17 12 17
16 3 60 -10 29 -12 49 -6 53 6 3 8 25 4 50 -4 34 -2 45 10 50 22 8 24 3 38
-79 9 -50 21 -83 36 -101 27 -31 38 -33 55 -10 8 11 29 18 56 19 24 1 48 2 53
3 5 1 6 14 3 30 -5 23 0 34 21 53 15 14 44 46 64 71 50 61 128 98 217 105 41
3 71 0 75 -6 3 -5 1 -35 -5 -65 l-12 -56 -86 -41 c-102 -49 -151 -80 -151 -97
0 -7 -9 -13 -20 -13 -15 0 -20 7 -20 25 0 31 -7 31 -42 2 -24 -19 -28 -30 -30
-81 -3 -49 0 -60 17 -69 11 -6 33 -20 48 -30 25 -17 30 -17 45 -4 9 8 55 33
102 56 67 33 95 41 139 41 74 0 172 -18 196 -36 20 -15 20 -15 -5 -34 -14 -11
-36 -20 -50 -20 -25 -1 -25 -1 -5 -16 14 -11 33 -14 62 -10 29 4 45 1 50 -8 4
-7 18 -18 29 -24 17 -9 25 -8 34 3 14 17 46 20 55 5 3 -5 17 -10 29 -10 13 0
35 -9 49 -20 14 -11 33 -20 44 -20 24 0 38 -11 46 -34 6 -15 14 -17 42 -12 30
6 36 4 49 -21 9 -15 27 -41 41 -58 24 -28 25 -29 25 -7 0 12 3 22 8 22 15 0
52 -31 52 -44 0 -11 52 -56 65 -56 2 0 16 -10 30 -22 19 -16 24 -29 20 -45 -4
-18 2 -27 30 -45 34 -23 45 -38 25 -38 -5 0 -10 -11 -10 -25 0 -50 -52 -44
-78 9 -15 29 -86 70 -108 62 -8 -3 -14 -13 -14 -22 0 -11 -5 -14 -16 -10 -10
4 -26 -3 -42 -19 -30 -30 -37 -31 -56 -4 -10 14 -20 19 -34 15 -12 -4 -33 1
-54 14 -18 11 -41 20 -51 20 -29 0 -31 28 -3 68 26 39 35 65 15 45 -19 -19
-81 -2 -142 38 -48 32 -62 37 -82 29 -14 -5 -90 -9 -170 -8 -127 0 -146 3
-161 19 -24 26 -39 24 -64 -11 -26 -36 -74 -63 -99 -55 -10 3 -23 16 -29 30
-15 32 7 86 45 113 43 30 110 62 130 62 10 0 24 9 31 20 15 24 10 24 -64 5
-79 -20 -127 -64 -171 -154 -24 -50 -25 -57 -12 -80 8 -14 49 -45 92 -69 72
-41 78 -43 113 -32 69 23 299 -17 255 -45 -8 -4 -5 -15 9 -32 24 -31 21 -37
-14 -24 -51 20 -25 -8 36 -38 58 -30 93 -42 56 -20 -10 5 -18 15 -18 21 0 25
163 -18 260 -68 53 -27 132 -100 153 -141 25 -48 31 -117 12 -136 -9 -10 -21
-17 -26 -17 -12 0 -12 17 1 25 16 10 11 32 -8 37 -15 4 -18 1 -14 -18 6 -31
-14 -31 -105 -3 -88 27 -107 36 -173 82 -30 21 -60 35 -66 33 -7 -3 -28 -1
-46 5 -57 16 -132 13 -174 -9 -21 -11 -67 -45 -101 -76 -49 -45 -68 -56 -95
-56 -44 0 -60 -15 -46 -45 8 -19 6 -33 -11 -67 -11 -25 -21 -54 -21 -67 0 -12
-5 -31 -11 -42 -7 -14 -7 -24 0 -33 8 -10 6 -18 -9 -31 -15 -13 -19 -27 -16
-49 3 -17 8 -53 11 -79 6 -48 6 -48 30 -33 13 9 26 12 28 8 3 -4 8 -47 11 -97
4 -49 11 -103 16 -120 5 -16 11 -47 15 -68 6 -44 24 -82 33 -72 3 3 18 27 32
53 14 26 34 48 44 50 13 3 17 0 13 -11 -4 -11 0 -13 14 -10 10 3 19 12 19 19
0 21 44 17 65 -6 10 -11 23 -20 30 -20 25 0 65 -26 65 -42 0 -18 -72 -62 -83
-52 -3 3 -12 -8 -21 -24 -8 -16 -27 -44 -42 -61 l-27 -32 27 -28 c27 -28 34
-55 16 -66 -6 -3 -10 5 -10 19 0 14 -4 27 -8 30 -13 8 -61 -46 -65 -73 -2 -12
-8 -26 -14 -29 -6 -4 -14 -26 -17 -49 -4 -22 -14 -49 -21 -60 -13 -17 -14 -17
-8 5 7 27 -6 28 -35 2 -14 -14 -22 -33 -22 -55 0 -19 -5 -37 -10 -40 -6 -3
-10 -17 -10 -31 0 -13 -11 -47 -25 -76 -27 -56 -30 -68 -17 -68 5 0 17 18 27
40 10 22 24 40 32 40 21 0 15 -18 -22 -67 -35 -46 -39 -54 -36 -85 1 -10 -3
-27 -9 -39 -9 -15 -9 -19 -1 -14 6 3 19 23 29 42 26 55 37 46 61 -52 7 -29 10
-26 54 65 26 52 47 106 47 120 0 14 21 56 45 94 46 71 52 86 35 86 -6 0 -9 -6
-8 -13 2 -7 -6 -11 -21 -9 -20 2 -22 -1 -17 -22 5 -22 -17 -56 -29 -44 -14 13
50 268 67 268 11 0 10 -5 -7 -47 -20 -48 -19 -66 6 -89 17 -16 22 -16 29 -4 6
8 10 18 10 23 0 4 10 11 23 16 18 7 26 22 36 68 7 32 24 87 37 122 15 38 21
67 15 70 -6 4 3 26 19 50 39 58 52 72 58 66 3 -2 -1 -11 -8 -19 -6 -9 -10 -21
-8 -27 2 -6 17 8 32 32 16 24 44 60 63 79 19 19 43 45 54 57 l21 22 -24 -6
c-23 -6 -23 -6 -4 15 11 12 17 24 15 26 -2 2 -26 -2 -54 -10 -27 -7 -60 -13
-73 -14 -13 0 -36 -7 -53 -15 -27 -14 -33 -14 -61 0 -17 8 -41 15 -52 15 -27
0 -143 68 -151 88 -10 26 0 23 46 -12 24 -19 54 -37 67 -41 19 -5 22 -3 20 17
-2 17 3 24 20 26 12 2 22 -1 22 -6 0 -19 62 -21 142 -6 57 11 84 12 86 5 2 -6
10 -11 18 -11 7 0 11 6 9 13 -6 16 5 31 32 46 13 7 24 7 28 2 3 -6 -4 -15 -15
-21 -35 -19 -22 -30 15 -13 32 15 50 53 25 53 -5 0 -10 6 -10 13 0 22 62 142
67 130 5 -15 -15 -82 -30 -101 -5 -7 -7 -16 -2 -20 9 -9 63 53 80 94 8 17 21
36 29 44 30 24 11 146 -30 191 -29 31 -31 56 -4 64 29 9 69 -20 77 -56 14 -69
46 -37 51 51 4 86 4 133 0 160 -4 30 22 38 47 14 13 -14 14 -19 3 -25 -11 -8
-11 -11 1 -18 8 -5 11 -17 7 -28 -5 -15 0 -23 19 -31 19 -9 25 -19 25 -42 0
-34 -20 -79 -44 -99 -18 -15 -23 -101 -6 -101 6 0 10 -10 10 -22 0 -13 9 -47
20 -75 l20 -52 -21 -11 c-11 -6 -19 -19 -17 -28 1 -9 -1 -23 -5 -29 -10 -15
-47 -17 -47 -3 0 5 -7 7 -15 4 -22 -9 -18 9 5 24 11 7 20 22 20 35 0 39 -50
29 -103 -20 -26 -24 -52 -40 -60 -38 -15 6 -54 -34 -83 -85 -10 -19 -27 -45
-38 -57 -11 -13 -14 -23 -8 -23 6 0 14 5 18 11 4 6 36 25 73 42 49 22 81 30
123 30 65 0 63 2 72 -35 5 -21 0 -33 -21 -54 -22 -21 -24 -25 -8 -19 11 5 37
10 58 13 21 2 41 10 44 18 3 8 13 14 23 14 11 0 22 5 25 10 4 6 15 8 25 5 10
-3 21 -1 24 4 4 5 22 7 41 4 30 -5 34 -3 29 11 -11 29 84 21 149 -13 89 -47
187 -129 194 -163 3 -17 21 -42 44 -60 22 -17 50 -51 64 -74 16 -27 33 -44 47
-46 14 -2 24 -11 26 -23 8 -53 14 -65 46 -84 34 -21 86 -107 86 -142 0 -10 9
-27 21 -38 18 -17 19 -22 7 -42 -7 -13 -17 -27 -23 -32 -6 -4 1 -17 18 -32 31
-27 49 -32 46 -12 -1 6 -1 21 0 31 2 36 15 6 19 -44 3 -40 0 -50 -12 -50 -8 0
-18 9 -21 20 -3 11 -13 20 -20 20 -10 0 -12 -6 -8 -17 6 -14 2 -13 -21 5 -16
12 -33 22 -38 22 -16 0 2 -20 42 -45 44 -28 61 -75 27 -75 -19 0 -20 -1 -2
-20 19 -21 13 -42 -7 -22 -7 7 -16 12 -20 12 -15 0 -8 -25 17 -63 19 -27 22
-37 12 -37 -8 0 -20 7 -27 15 -7 9 -15 13 -18 10 -3 -3 10 -21 28 -40 23 -24
29 -35 18 -35 -8 0 -21 7 -28 15 -7 8 -17 15 -22 15 -5 0 7 -19 28 -43 23 -26
38 -55 40 -76 l4 -34 -22 19 c-21 19 -21 19 -13 -1 16 -42 19 -68 5 -60 -10 6
-11 4 -6 -11 17 -41 19 -55 5 -52 -10 2 -13 -7 -11 -32 2 -33 2 -34 -13 -16
-8 11 -15 28 -15 37 0 10 -5 21 -11 25 -11 6 -8 -25 7 -78 7 -24 -9 -23 -31 2
-21 24 -40 26 -31 5 8 -21 -4 -19 -31 7 -32 30 -38 17 -14 -31 12 -22 21 -47
21 -56 0 -24 -26 -18 -38 10 -6 14 -26 34 -44 45 -27 16 -34 17 -40 5 -10 -18
60 -175 78 -175 18 0 28 -20 26 -52 -2 -24 4 -31 38 -45 22 -10 40 -23 40 -30
0 -15 -16 -17 -25 -3 -10 16 -25 12 -25 -7 0 -13 -3 -14 -12 -5 -7 7 -18 12
-26 12 -8 0 -21 8 -28 18 -9 11 -13 13 -14 4 0 -9 -7 -11 -19 -7 -26 8 -38
-29 -20 -61 16 -32 1 -45 -18 -17 -17 26 -41 30 -49 9 -3 -8 -12 -12 -19 -10
-19 7 -27 -12 -27 -58 1 -33 -2 -37 -13 -28 -8 7 -17 20 -20 31 -5 14 -16 19
-46 19 -35 0 -39 -3 -39 -25 0 -23 -2 -24 -20 -15 -17 9 -20 8 -20 -10 0 -20
2 -20 850 -20 l850 0 0 519 c0 528 -4 585 -38 574 -7 -3 -15 7 -18 26 -8 36
-4 47 15 43 9 -2 12 2 8 12 -4 10 -1 16 8 16 7 0 16 -10 18 -22 2 -13 5 18 5
67 1 77 -2 97 -23 140 -14 28 -25 55 -25 61 0 6 -7 17 -15 24 -8 7 -15 19 -15
28 0 25 40 -16 61 -63 18 -39 19 -9 19 1268 l0 1307 -875 0 c-722 0 -875 -2
-875 -13 0 -26 -42 -38 -100 -28 -34 6 -59 6 -65 0 -6 -6 -1 -12 13 -16 17 -4
22 -11 19 -25 -4 -14 3 -24 24 -36 16 -10 29 -20 29 -24 0 -19 87 -118 103
-118 10 0 17 -8 17 -19 0 -22 48 -111 60 -111 5 0 23 -16 41 -35 37 -39 49
-40 24 -1 -9 14 -15 31 -12 38 2 7 -9 27 -25 44 l-30 32 23 21 23 21 -27 0
c-15 0 -30 7 -33 15 -10 24 11 70 32 71 27 0 66 23 59 35 -12 19 12 8 35 -16
12 -13 27 -22 32 -19 6 4 5 11 -1 17 -16 16 -14 25 8 36 14 8 36 4 87 -13 92
-31 259 -106 311 -139 24 -15 46 -27 49 -27 13 0 74 -51 74 -62 0 -7 -4 -7
-12 -1 -7 6 -22 13 -33 16 -16 6 -15 3 5 -13 57 -47 180 -176 180 -190 0 -8
11 -35 24 -60 26 -50 25 -63 -12 -102 -31 -34 -11 -38 22 -5 33 34 98 57 155
57 51 0 141 -32 141 -50 0 -5 7 -10 16 -10 8 0 46 -25 84 -55 38 -30 73 -55
78 -55 14 0 48 -42 70 -85 11 -22 29 -49 41 -59 12 -11 21 -27 21 -37 0 -10 9
-23 20 -29 11 -6 18 -16 14 -21 -4 -7 -10 -7 -17 0 -24 24 -28 8 -22 -77 6
-67 3 -100 -9 -141 -9 -30 -16 -67 -16 -81 0 -15 -11 -36 -25 -50 -28 -27 -33
-45 -9 -36 10 4 14 1 12 -6 -2 -7 -36 -29 -75 -48 -51 -25 -73 -42 -78 -59 -5
-19 -11 -22 -36 -19 l-30 5 33 -34 c36 -37 75 -48 42 -12 l-19 22 38 -7 c33
-6 37 -5 37 15 0 19 4 21 31 15 18 -3 44 -17 58 -31 14 -14 36 -35 49 -47 12
-12 22 -31 22 -43 0 -26 19 -85 33 -103 17 -22 18 -110 1 -116 -9 -3 -12 -11
-8 -17 3 -6 1 -15 -6 -19 -11 -7 -11 -14 -1 -37 9 -22 9 -41 1 -74 -16 -66
-20 -187 -6 -198 6 -5 24 -7 39 -4 28 5 28 7 22 54 -10 73 26 62 38 -11 4 -19
9 -45 13 -57 5 -17 2 -23 -10 -23 -12 0 -15 -6 -10 -25 5 -20 1 -26 -19 -34
-35 -13 -40 -38 -21 -97 28 -86 33 -136 17 -161 -10 -14 -12 -33 -8 -53 8 -37
29 -41 22 -3 -3 15 -3 33 0 40 7 19 43 -30 55 -75 16 -63 15 -67 -14 -70 -23
-3 -28 1 -34 25 -12 54 -14 47 -11 -45 1 -50 -1 -92 -5 -92 -10 0 -16 27 -23
115 -4 44 -11 99 -16 123 -7 33 -6 48 6 65 13 20 13 29 -2 82 -20 73 -17 69
-41 56 -21 -11 -38 -46 -50 -106 -7 -34 -13 -42 -42 -51 -31 -10 -35 -16 -35
-45 0 -42 -10 -59 -35 -59 -13 0 -20 8 -22 28 l-3 27 -13 -23 c-15 -27 -9 -52
22 -90 39 -46 40 -77 7 -135 -23 -41 -32 -73 -40 -147 -13 -118 -8 -344 9
-385 14 -35 8 -171 -9 -204 -7 -13 -21 -21 -38 -21 l-26 0 6 74 c4 44 2 87 -4
105 -9 26 -15 30 -42 28 -24 -1 -34 3 -44 23 -7 14 -13 23 -13 20 0 -3 -9 -30
-19 -60 -18 -50 -18 -60 -6 -107 12 -46 12 -61 -4 -128 -10 -42 -21 -78 -23
-80 -3 -3 -4 32 -4 77 1 46 -3 85 -9 87 -16 5 -78 -129 -83 -181 -2 -26 -8
-48 -12 -48 -11 0 -22 115 -14 157 4 21 11 44 16 50 6 7 8 24 6 38 -3 14 -1
25 3 25 5 0 9 9 9 20 0 11 -5 20 -11 20 -7 0 -8 7 -4 18 14 33 23 85 18 98 -3
8 -13 14 -23 14 -10 0 -20 6 -23 13 -11 30 -22 -11 -23 -86 -1 -85 -10 -137
-25 -137 -17 0 -22 78 -10 190 25 224 25 226 7 233 -12 5 -16 0 -16 -15 0 -20
-3 -19 -30 12 -29 35 -39 57 -19 45 6 -4 5 2 -2 14 -11 16 -11 27 -1 53 12 35
13 130 1 122 -4 -2 -13 -29 -19 -59 -7 -34 -16 -53 -22 -49 -15 10 -3 96 16
109 9 7 14 14 11 17 -3 2 11 42 31 89 19 46 44 113 56 149 11 36 29 85 40 110
30 65 57 129 58 135 4 35 15 65 24 65 6 0 4 5 -4 10 -13 8 -11 17 12 59 l27
49 -36 -8 c-35 -8 -69 -30 -46 -30 17 0 24 -29 13 -51 -14 -25 -26 -24 -33 1
-8 33 -35 23 -69 -25 -25 -35 -34 -42 -45 -33 -7 6 -16 8 -20 5 -3 -4 -12 -2
-19 3 -9 8 -5 24 18 72 16 33 26 63 23 67 -9 8 -43 -38 -56 -76 -6 -18 -17
-33 -25 -33 -19 0 -18 34 1 50 25 21 58 71 51 77 -7 7 -66 -46 -66 -59 0 -5
-18 -47 -40 -94 -22 -47 -40 -90 -40 -95 0 -5 -4 -9 -10 -9 -18 0 -11 27 29
119 22 50 35 91 30 91 -5 0 -21 -27 -36 -60 -18 -42 -32 -60 -42 -58 -17 3
-29 48 -13 48 5 0 12 8 16 18 3 9 16 34 28 54 90 149 116 186 171 242 131 135
134 140 107 126 -14 -7 -60 -47 -102 -88 -43 -42 -78 -72 -78 -68 0 4 18 30
39 59 22 28 38 53 36 55 -2 3 -25 -8 -50 -22 -27 -16 -53 -25 -64 -21 -18 5
-18 7 -1 41 10 19 30 51 45 70 l27 36 -23 -4 c-18 -2 -23 1 -21 15 4 21 -5 22
-24 2 -21 -20 -46 -19 -42 2 2 9 14 20 28 23 14 3 34 20 45 38 11 17 28 31 38
32 9 0 35 11 57 25 21 14 46 22 54 19 8 -3 24 -1 35 6 16 8 20 17 15 35 -5 21
-1 27 22 36 16 6 46 8 66 6 37 -5 39 -4 58 40 21 47 25 79 13 86 -5 3 -7 56
-5 119 4 169 4 169 -3 228 -6 45 -5 53 6 43 7 -7 16 -41 20 -75 7 -63 25 -125
34 -116 3 3 -2 24 -10 48 -17 48 -20 130 -5 130 6 0 10 -4 10 -10 0 -5 6 -7
13 -4 17 6 32 -12 41 -48 9 -38 26 -35 26 4 0 17 7 39 15 48 12 13 13 23 5 44
-14 39 -12 66 5 66 10 0 15 -10 15 -29 0 -28 15 -49 27 -38 3 3 2 20 -2 38 -5
21 -32 55 -82 104 -100 96 -101 97 -139 138 -19 20 -34 41 -34 47 0 18 -28 11
-33 -9 -3 -14 -11 -18 -25 -14 -23 6 -37 -24 -27 -57 4 -12 2 -20 -5 -20 -7 0
-14 9 -17 20 -3 11 -9 20 -12 20 -9 0 -38 -33 -68 -77 -22 -31 -22 -31 -2 -45
13 -8 22 -28 26 -58 3 -25 9 -50 14 -55 4 -6 3 -30 -2 -54 -13 -59 -6 -61 22
-6 25 51 34 59 49 50 7 -4 6 -14 -1 -28 -10 -18 -6 -17 20 7 39 37 48 29 22
-20 -16 -29 -21 -56 -20 -109 1 -65 2 -67 11 -33 8 30 17 39 45 49 43 14 51 7
33 -34 -8 -18 -16 -86 -19 -159 -6 -117 -12 -150 -27 -135 -3 3 -7 20 -8 39
-2 18 -4 40 -5 48 -1 10 -6 8 -17 -8 -13 -18 -14 -29 -5 -54 14 -39 14 -38 -3
-38 -8 0 -17 11 -20 25 -4 14 -14 29 -24 32 -22 8 -32 23 -32 50 0 12 -5 25
-12 29 -11 7 -11 4 9 -83 8 -35 -14 -27 -26 9 -6 17 -13 29 -16 26 -3 -3 0
-17 6 -32 7 -14 10 -29 6 -32 -13 -13 -27 10 -47 76 -12 39 -25 70 -31 70 -5
0 -3 -13 6 -30 12 -24 13 -30 2 -30 -14 0 -57 85 -57 113 0 13 9 17 35 17 41
0 47 17 8 22 -19 2 -29 10 -34 28 -5 21 -7 22 -14 8 -11 -27 -27 -21 -60 23
-26 35 -34 40 -58 35 -16 -3 -38 -1 -49 5 -22 12 -22 14 -2 -36 12 -29 -12
-15 -49 30 -26 31 -44 44 -59 42 -15 -1 -29 9 -45 33 -26 38 -15 54 18 24 14
-12 19 -13 19 -4 0 7 8 22 17 32 15 17 15 21 1 46 -8 15 -18 47 -22 71 -7 45
-7 45 14 26 11 -10 23 -16 26 -13 5 6 -40 203 -58 250 -10 26 -43 46 -55 34
-3 -3 3 -18 13 -33 17 -26 44 -80 44 -89 0 -2 -6 -4 -14 -4 -8 0 -23 16 -35
35 -11 19 -26 35 -33 35 -7 0 -18 10 -23 22 -6 12 -16 24 -24 26 -11 4 -13 -4
-7 -37 8 -50 -3 -53 -29 -5 -18 35 -67 79 -112 103 -36 18 -27 -5 10 -28 35
-21 67 -95 49 -113 -11 -11 -67 64 -84 112 -10 32 -26 38 -46 18 -8 -8 -5 -18
13 -40 14 -16 25 -34 25 -40 0 -5 9 -22 20 -38 16 -22 17 -30 7 -38 -16 -14
-26 -6 -57 40 -26 40 -35 45 -45 28 -9 -15 -35 8 -35 30 0 10 11 27 23 37 28
22 50 59 44 76 -2 7 -27 -21 -57 -61 -54 -75 -70 -86 -70 -52 0 16 -5 19 -24
14 -13 -3 -27 -1 -30 5 -4 6 -16 11 -26 11 -13 0 -25 12 -34 35 -10 24 -22 35
-35 35 -25 0 -36 21 -45 83 -7 44 -5 51 23 83 48 54 40 80 -11 37 -13 -11 -21
-12 -37 -3 -19 10 -20 13 -6 26 8 9 15 18 15 21 0 10 -35 32 -51 33 -9 0 -20
7 -23 16 -6 15 -9 15 -29 -5 -31 -28 -52 -29 -37 -1 12 23 6 40 -15 40 -26 0
-26 20 -1 45 30 29 29 30 -13 9 -17 -9 -39 -13 -48 -10 -14 6 -14 8 2 26 18
20 18 20 -12 14 -20 -4 -35 -1 -46 10 -12 13 -43 18 -119 22 -80 5 -109 10
-131 26 -23 16 -31 17 -44 7 -13 -11 -18 -10 -34 10 -23 28 -23 38 -5 74 14
25 14 27 -7 27 -23 0 -26 -10 -27 -99 0 -41 -2 -43 -25 -39 -21 4 -25 1 -25
-19 0 -18 -5 -24 -20 -21 -10 2 -25 -5 -33 -16 -11 -14 -18 -16 -33 -8 -15 8
-31 4 -72 -18 -44 -23 -59 -27 -85 -19 -18 5 -33 9 -34 9 -1 0 -7 9 -13 20
-15 29 37 104 83 119 19 7 45 23 57 36 15 16 35 25 54 25 17 1 45 7 61 15 26
11 -68 13 -672 14 l-703 1 0 -406z m1575 175 c41 1 80 -16 94 -42 12 -21 74
-57 100 -57 6 0 23 -11 37 -25 14 -14 38 -32 54 -40 17 -9 37 -27 46 -40 9
-14 23 -25 30 -25 8 0 14 -4 14 -10 0 -5 -4 -10 -10 -10 -5 0 -10 -4 -10 -10
0 -5 7 -7 15 -4 23 9 18 -15 -10 -48 -14 -16 -25 -34 -25 -39 0 -17 9 -9 25
21 9 17 27 36 41 42 23 11 28 9 49 -18 12 -16 44 -51 70 -77 l46 -48 -25 -26
c-14 -14 -26 -31 -26 -37 1 -6 11 1 23 17 23 27 57 37 57 15 0 -6 -10 -23 -22
-36 l-23 -25 22 12 c12 6 28 11 35 11 19 0 43 -67 30 -83 -6 -7 -12 -16 -14
-21 -6 -18 -56 -17 -62 1 -6 14 -8 14 -26 -2 -27 -24 -47 -7 -30 24 9 17 8 25
-5 37 -15 15 -15 14 -10 -9 4 -14 2 -28 -4 -31 -18 -11 -13 -29 24 -85 33 -50
34 -53 15 -58 -11 -3 -20 -14 -20 -24 0 -28 -18 -32 -56 -14 -38 18 -46 49
-16 71 12 9 13 13 4 14 -22 0 -85 32 -105 52 -12 12 -26 17 -38 13 -14 -5 -19
-2 -19 13 0 11 -7 23 -16 26 -11 4 -15 14 -12 31 4 21 2 23 -21 19 -15 -3 -34
1 -45 9 -17 13 -18 18 -7 45 17 42 45 64 73 60 20 -3 23 1 23 29 0 19 9 41 24
57 31 33 19 34 -16 2 l-27 -25 -33 29 c-26 23 -39 28 -62 24 -18 -4 -42 0 -61
10 -18 9 -37 13 -42 10 -5 -3 -15 0 -23 6 -12 10 -15 9 -15 -3 0 -41 -55 -24
-66 20 l-7 26 -16 -34 c-22 -46 -55 -47 -59 -3 -2 25 -9 33 -27 37 -18 3 -26
-1 -30 -14 -8 -25 -39 -33 -66 -17 -17 10 -23 10 -26 1 -6 -17 -44 -16 -68 1
-15 11 -17 20 -11 52 4 21 9 60 10 86 4 84 73 129 142 92 33 -18 33 -18 86 9
34 18 60 25 73 21 11 -3 34 -6 50 -5z m443 -1059 c89 -43 162 -84 162 -89 0
-15 -4 -14 -58 13 -58 29 -122 56 -122 51 0 -7 97 -63 133 -76 20 -7 37 -17
37 -21 0 -12 -18 -10 -53 7 -26 13 -29 13 -14 1 10 -8 55 -27 100 -41 105 -35
120 -43 113 -61 -7 -18 51 -75 74 -73 34 3 42 -3 60 -45 11 -24 27 -49 35 -56
47 -39 -12 -40 -68 -1 -23 15 -52 31 -64 35 -13 4 -46 27 -75 52 -28 24 -59
44 -67 44 -9 0 -24 12 -34 25 -21 29 -7 33 33 10 29 -17 40 -18 40 -6 0 4 -21
14 -47 21 -27 7 -52 16 -58 21 -5 4 -43 17 -82 28 -40 12 -73 26 -73 31 0 6
-8 18 -18 28 -10 10 -24 32 -31 49 -9 22 -23 33 -50 41 -66 20 -109 92 -54 92
10 0 91 -36 181 -80z m141 -228 c20 -20 52 -47 72 -59 19 -12 41 -34 49 -48 7
-14 21 -25 31 -25 9 0 27 -9 40 -20 l24 -19 -37 6 c-34 5 -38 3 -38 -16 0 -14
-11 -28 -30 -39 -26 -15 -41 -42 -23 -42 15 0 73 52 73 66 0 7 4 14 8 14 17 0
21 -13 11 -31 -7 -14 -5 -31 10 -64 11 -25 24 -45 29 -45 21 0 21 15 0 39
l-23 25 29 -22 c34 -26 52 -28 63 -7 8 13 16 9 51 -21 49 -41 53 -61 15 -70
-16 -3 -43 -10 -62 -16 -18 -6 -48 -8 -67 -5 -46 8 -43 2 11 -19 43 -16 47
-16 79 1 29 16 37 16 50 6 14 -11 14 -17 1 -46 l-13 -34 31 -3 c40 -4 41 -21
1 -29 -16 -4 -23 -7 -16 -8 20 -2 14 -39 -9 -52 -26 -13 -79 -4 -134 23 l-40
21 19 -22 c33 -37 132 -55 163 -30 7 7 17 9 21 5 14 -14 -39 -45 -96 -56 -31
-6 -65 -15 -75 -21 -24 -13 -79 18 -72 41 3 10 -20 42 -61 85 -57 60 -70 80
-90 143 -13 41 -26 94 -30 118 -6 44 -20 57 -30 30 -3 -8 2 -29 12 -47 16 -32
16 -33 -6 -51 -27 -22 -31 -22 -55 -4 -19 14 -19 15 -2 51 18 37 17 38 -3 57
-11 11 -17 24 -13 31 4 6 9 27 13 47 4 26 11 36 28 38 12 2 22 8 22 13 0 6 8
9 18 7 20 -3 82 21 82 32 0 5 -22 28 -50 53 -27 25 -50 48 -50 51 0 18 38 1
69 -32z m-662 1 c54 -19 93 -45 93 -63 0 -14 -5 -13 -50 10 -41 21 -60 25 -60
13 1 -12 102 -57 122 -55 19 2 86 -58 113 -100 28 -46 -5 -34 -38 12 -25 35
-31 39 -48 29 -20 -10 -20 -11 -3 -30 16 -18 16 -19 -5 -19 -12 0 -24 7 -28
16 -4 12 -14 14 -35 10 -16 -3 -50 -1 -76 5 -85 19 -178 13 -229 -16 -52 -29
-95 -32 -114 -9 -11 14 -10 22 8 54 18 34 19 40 6 53 -13 13 -10 19 25 48 32
27 58 38 124 51 93 19 121 18 195 -9z m1538 -143 c3 -5 3 -10 -2 -10 -13 0
-123 -105 -123 -118 0 -6 -11 -19 -25 -28 -14 -9 -22 -20 -19 -25 3 -5 -11
-33 -30 -62 -20 -29 -40 -77 -47 -106 -10 -47 -30 -73 -45 -58 -7 7 32 128 59
182 10 22 29 50 40 63 26 28 18 28 -30 0 -44 -25 -56 -39 -44 -51 10 -10 -15
-86 -35 -107 -12 -12 -14 -12 -14 5 0 11 7 51 15 90 8 38 13 77 10 86 -5 13
16 28 89 64 52 26 101 45 109 42 8 -3 25 5 38 19 24 25 44 31 54 14z m-1615
-40 c0 -5 -15 -12 -32 -15 -47 -10 -58 -23 -58 -67 0 -55 40 -92 90 -83 19 4
43 14 53 22 18 17 24 83 7 83 -5 0 -10 -7 -10 -15 0 -14 -29 -35 -49 -35 -13
0 -14 40 -2 73 8 21 15 23 63 22 78 -2 98 -13 133 -72 l19 -32 -24 -28 c-14
-16 -18 -22 -10 -15 17 14 40 16 40 2 0 -5 -9 -19 -21 -31 -16 -16 -18 -23 -8
-35 19 -23 -17 -94 -47 -94 -13 0 -28 -9 -34 -20 -6 -12 -21 -20 -36 -20 -21
0 -23 -3 -15 -17 8 -15 3 -19 -42 -29 -29 -6 -66 -15 -83 -19 -24 -5 -36 -3
-50 12 -11 11 -46 30 -79 43 -72 29 -145 92 -145 126 0 17 6 24 19 24 11 0 23
-4 26 -10 7 -12 97 -52 103 -46 2 3 -16 14 -40 26 -25 11 -62 38 -83 60 -35
36 -37 42 -27 65 16 35 44 32 105 -14 58 -44 179 -111 199 -111 8 0 24 -7 37
-17 l24 -16 -23 -19 c-23 -18 -23 -18 36 -12 32 4 64 11 69 17 7 6 -2 8 -27 4
-35 -5 -38 -4 -38 19 0 19 -5 24 -25 24 -27 0 -68 16 -106 42 -20 13 -25 24
-22 42 4 19 -2 29 -24 42 -58 38 -68 69 -26 85 16 6 35 16 43 24 21 18 120 31
120 15z m1580 -551 c0 -21 -6 -35 -62 -157 -26 -55 -28 -67 -18 -91 8 -19 8
-35 0 -55 -5 -15 -10 -48 -10 -74 -1 -26 -7 -58 -15 -72 -8 -14 -14 -40 -15
-58 0 -22 -4 -32 -12 -29 -14 4 -15 55 -3 126 6 32 5 42 -3 37 -7 -4 -12 -18
-12 -32 0 -24 -14 -32 -24 -15 -11 17 70 260 124 374 32 68 50 84 50 46z m126
-341 c-8 -43 -73 -177 -97 -204 -11 -11 -24 -45 -29 -75 -5 -30 -12 -64 -16
-76 -3 -13 -4 -23 -1 -23 4 0 16 33 27 73 23 76 64 157 80 157 16 0 11 -33
-10 -75 -11 -22 -20 -51 -20 -66 0 -15 -9 -48 -20 -73 -21 -51 -90 -306 -90
-337 0 -11 -7 -19 -16 -19 -14 0 -15 9 -8 63 16 133 9 192 -25 192 -6 0 -5 34
5 95 3 22 2 30 -4 22 -18 -27 -20 26 -5 105 8 43 20 112 27 153 6 41 16 74 21
73 6 -2 10 -6 10 -10 -1 -10 -15 -138 -21 -183 -3 -26 1 -20 14 20 20 64 81
170 99 170 6 0 14 6 16 13 4 8 6 7 6 -3 1 -8 -10 -42 -24 -75 -13 -33 -25 -66
-25 -73 0 -30 19 2 55 92 38 95 64 126 51 64z m-41 -535 c-2 -60 -10 -139 -19
-178 -21 -94 -20 -112 5 -118 19 -5 20 -11 15 -49 -4 -24 -10 -72 -14 -108 -6
-60 -9 -65 -29 -62 -13 2 -23 0 -24 -5 0 -4 -2 -41 -3 -81 -2 -40 -6 -75 -10
-79 -14 -14 -28 17 -37 88 -12 85 -26 107 -58 90 -28 -15 -27 -2 0 69 12 30
24 70 26 88 3 17 10 32 17 32 7 0 11 31 11 98 0 127 44 285 84 306 15 8 29 14
33 15 4 1 5 -47 3 -106z"/>
<path d="M390 3014 c0 -3 9 -18 20 -32 12 -15 38 -50 60 -78 21 -29 44 -70 50
-93 12 -46 35 -54 49 -18 5 13 16 28 24 35 8 7 18 35 22 62 6 40 13 54 42 75
37 29 39 47 1 21 -25 -18 -64 -21 -73 -6 -11 18 -23 10 -30 -20 -14 -62 -71
-58 -110 8 -16 27 -55 60 -55 46z"/>
<path d="M0 2318 c0 -175 3 -318 6 -318 4 0 12 8 19 17 12 16 15 15 39 -7 54
-52 9 -123 -46 -73 -17 15 -18 13 -18 -59 0 -58 3 -77 15 -82 8 -3 15 -12 15
-21 0 -8 -7 -15 -15 -15 -8 0 -15 -7 -15 -15 0 -10 10 -15 29 -15 46 0 83 -50
47 -63 -9 -4 -12 -14 -9 -26 9 -34 -25 -25 -47 12 l-20 32 0 -142 c0 -79 2
-143 5 -143 2 0 29 16 59 35 50 32 78 65 56 65 -6 0 -10 9 -10 21 0 12 5 19
13 16 6 -2 11 -11 9 -18 -7 -29 25 16 41 59 15 37 15 42 2 42 -8 0 -15 5 -15
11 0 13 -20 33 -42 42 -23 8 -23 33 -2 45 9 5 23 23 30 40 l13 31 -30 -6 c-28
-5 -69 17 -69 37 0 17 30 18 46 2 16 -15 20 -13 70 42 29 32 61 79 71 105 9
25 23 56 31 69 31 49 2 29 -48 -32 -49 -60 -55 -65 -84 -59 -17 3 -33 7 -35 9
-12 10 17 65 53 99 24 22 53 56 66 75 13 19 36 49 52 66 24 26 26 33 15 42
-11 9 -19 4 -38 -25 -33 -51 -72 -72 -99 -55 -12 7 -25 10 -30 7 -5 -3 -12 0
-15 6 -4 5 12 26 34 46 31 26 39 38 31 48 -7 9 -6 16 5 25 20 16 19 59 0 67
-19 7 -85 101 -142 203 l-42 75 -1 -317z"/>
<path d="M779 2546 c-47 -33 -204 -214 -194 -224 3 -3 25 13 48 36 24 24 46
40 50 36 6 -6 -41 -76 -55 -82 -5 -2 -5 -14 -2 -27 7 -29 -42 -108 -63 -101
-8 3 -12 2 -8 -3 3 -5 -21 -8 -54 -7 -52 3 -58 1 -53 -16 7 -28 21 -32 42 -13
21 19 50 14 50 -9 0 -7 9 -16 19 -19 29 -7 87 55 106 114 10 30 32 63 53 84
l37 34 15 -29 15 -30 50 43 c28 24 65 53 83 66 33 23 44 61 18 61 -23 0 -31
22 -13 35 21 15 22 25 2 25 -17 0 -20 16 -5 25 20 13 0 21 -53 23 -41 1 -61
-4 -88 -22z"/>
<path d="M1807 1654 c-61 -55 -112 -60 -130 -11 -3 9 -13 17 -22 17 -8 0 -15
8 -15 18 -1 15 -2 15 -15 -2 -22 -29 -20 -59 4 -51 22 7 37 -10 46 -50 13 -58
17 -65 33 -65 12 0 13 3 4 12 -20 20 -15 58 7 58 48 0 63 -22 39 -59 -9 -15
-9 -28 1 -60 10 -35 23 -48 94 -96 46 -30 97 -60 114 -66 28 -9 31 -13 20 -30
-6 -10 -17 -19 -24 -19 -23 0 -13 -28 17 -50 27 -19 35 -21 61 -10 33 14 49
37 49 71 0 29 71 97 106 101 35 4 69 48 59 77 -3 11 -10 21 -15 21 -5 0 -38
-26 -72 -58 -35 -32 -71 -61 -80 -65 -10 -3 -18 -17 -18 -29 0 -13 -5 -30 -10
-38 -8 -12 -14 -10 -37 12 -115 109 -160 148 -173 148 -9 0 -21 5 -28 12 -18
18 -15 114 5 151 9 18 16 36 14 41 -1 6 3 20 10 33 20 38 7 34 -44 -13z"/>
<path d="M1063 1493 c-16 -31 -35 -59 -42 -61 -10 -3 -10 0 -2 15 5 11 7 30 4
42 -5 21 -7 21 -24 5 -33 -29 -79 -110 -79 -137 0 -14 -7 -33 -16 -41 -8 -9
-14 -21 -12 -28 2 -6 21 6 41 27 23 23 42 35 52 32 10 -5 21 6 36 36 12 23 37
66 55 95 34 53 41 72 26 72 -5 0 -22 -26 -39 -57z"/>
<path d="M328 1125 c-6 -14 -14 -25 -18 -25 -13 0 -60 -49 -69 -72 -9 -22 -10
-22 -21 10 -14 37 -25 40 -40 13 -13 -25 -13 -61 0 -61 6 0 10 5 10 10 0 12
10 13 29 1 22 -14 -4 -41 -40 -41 -15 0 -31 -4 -34 -10 -9 -15 -25 -12 -25 5
0 8 -9 15 -19 15 -21 0 -26 -34 -34 -225 -2 -44 -7 -88 -12 -97 -5 -13 16 -50
75 -133 45 -64 79 -120 75 -123 -3 -4 -15 4 -25 18 -17 23 -21 24 -41 11 -20
-12 -24 -11 -40 10 -10 13 -30 47 -44 76 -27 57 -53 83 -41 42 4 -13 10 -35
13 -49 2 -14 14 -44 26 -67 26 -51 15 -68 -18 -28 -34 44 -39 26 -10 -39 28
-63 29 -66 16 -66 -5 0 -16 15 -25 33 -15 31 -16 24 -16 -150 l0 -183 378 0
378 0 0 35 c0 42 18 65 36 47 9 -9 10 -17 1 -30 -8 -13 -7 -22 2 -35 10 -14
29 -17 98 -17 95 0 100 4 90 65 -6 40 -24 42 -33 4 -8 -33 -16 -16 -34 69 -14
67 -14 73 5 111 22 47 23 52 7 48 -17 -3 -11 109 8 145 18 36 18 50 -3 68 -19
16 -115 21 -129 7 -5 -5 -12 -45 -15 -90 -4 -45 -10 -91 -15 -101 -5 -13 -4
-17 3 -13 6 4 16 26 22 49 12 48 27 75 35 67 4 -3 -4 -32 -16 -65 -15 -42 -22
-83 -22 -141 -1 -80 -12 -117 -22 -76 -4 15 -11 19 -26 15 -19 -4 -20 -2 -13
19 4 13 8 78 9 144 1 66 5 126 9 132 4 6 2 15 -4 19 -6 3 -21 30 -34 58 -21
46 -65 101 -65 81 0 -5 -16 6 -35 25 -28 27 -32 36 -24 52 13 24 5 50 -13 43
-7 -3 -18 5 -23 17 -6 13 -24 26 -42 30 -39 10 -44 41 -14 79 21 27 39 105 22
94 -6 -3 -11 -16 -11 -28 0 -12 -7 -31 -15 -41 -13 -17 -15 -17 -20 -3 -4 8
-2 24 4 36 16 29 14 71 -4 71 -11 0 -15 12 -15 48 0 26 -5 54 -10 62 -8 13
-11 13 -26 -2 -15 -15 -16 -23 -6 -57 11 -36 10 -45 -13 -95 -29 -64 -41 -74
-50 -46 -6 18 -9 19 -22 8 -13 -11 -13 -7 1 26 8 20 25 50 36 66 22 30 26 54
9 48 -11 -4 -54 -83 -111 -205 -32 -69 -48 -89 -48 -59 0 7 9 33 19 57 63 146
121 289 121 298 0 20 -20 11 -32 -14z"/>
<path d="M1432 717 c-18 -21 22 -80 48 -72 13 4 45 -7 93 -33 146 -80 238
-102 439 -102 87 -1 127 5 288 41 51 11 166 63 191 85 10 9 23 14 31 13 39 -5
56 3 68 32 19 46 -1 61 -37 27 -55 -51 -130 -90 -258 -131 l-130 -42 -144 3
c-241 4 -414 54 -523 151 -52 46 -51 46 -66 28z"/>
<path d="M1429 620 c-1 -8 -1 -19 0 -23 1 -5 -8 -21 -19 -37 -19 -27 -28 -93
-12 -87 4 1 20 -10 36 -25 l29 -26 -23 -37 c-12 -20 -20 -39 -17 -42 4 -3 16
11 28 31 22 38 26 41 48 27 10 -6 11 -13 2 -29 -17 -32 -13 -39 18 -34 22 3
33 -2 50 -24 21 -26 22 -27 37 -8 15 19 15 19 9 -1 -15 -40 -17 -65 -6 -65 6
0 15 15 20 32 7 26 9 28 10 11 1 -30 10 -29 38 5 l22 27 1 -40 c1 -38 2 -39
13 -15 11 24 11 23 15 -20 2 -33 -1 -47 -13 -56 -15 -11 -15 -14 1 -38 9 -15
19 -24 22 -21 6 6 7 14 10 103 1 33 6 51 12 47 6 -3 10 -17 10 -31 0 -14 6
-40 14 -58 16 -39 56 -52 80 -27 15 14 18 14 33 -2 16 -16 19 -15 50 15 31 30
34 31 51 15 38 -34 45 -23 39 59 -5 73 -20 110 -38 98 -5 -3 -22 8 -38 25 -16
17 -37 31 -46 31 -9 0 -25 5 -36 11 -11 6 -48 12 -82 14 -56 2 -105 17 -147
44 -8 6 -31 13 -51 16 -52 8 -99 43 -136 100 -18 27 -34 43 -34 35z"/>
<path d="M1137 403 c-4 -3 -7 -21 -7 -40 0 -21 -5 -33 -13 -33 -18 0 -44 -83
-28 -88 16 -5 13 -78 -4 -96 -18 -18 -19 -55 -3 -107 11 -39 11 -39 65 -39
l53 0 0 43 c0 40 14 78 50 135 13 19 13 24 1 31 -8 5 -20 7 -27 4 -7 -2 -14 4
-16 14 -3 14 -7 12 -21 -13 -10 -19 -26 -33 -42 -36 -24 -5 -25 -4 -19 36 8
51 9 52 31 35 15 -13 16 -12 8 6 -12 25 -13 103 -2 133 6 16 5 22 -6 22 -7 0
-17 -3 -20 -7z"/>
</g>
</svg>
